<?xml version="1.0" encoding="UTF-8" standalone="no"?>
<!-- Generator: Adobe Illustrator 19.0.1, SVG Export Plug-In . SVG Version: 6.00 Build 0)  -->

<svg
   version="1.1"
   id="Layer_1"
   x="0px"
   y="0px"
   width="243.80646mm"
   height="243.80779mm"
   viewBox="-816 494 921.4733 921.47832"
   xml:space="preserve"
   sodipodi:docname="sticks2.svg"
   inkscape:version="1.4.2 (ebf0e94, 2025-05-08)"
   xmlns:inkscape="http://www.inkscape.org/namespaces/inkscape"
   xmlns:sodipodi="http://sodipodi.sourceforge.net/DTD/sodipodi-0.dtd"
   xmlns="http://www.w3.org/2000/svg"
   xmlns:svg="http://www.w3.org/2000/svg"><defs
   id="defs59" /><sodipodi:namedview
   id="namedview57"
   pagecolor="#ffffff"
   bordercolor="#666666"
   borderopacity="1.0"
   inkscape:pageshadow="2"
   inkscape:pageopacity="0.0"
   inkscape:pagecheckerboard="0"
   showgrid="false"
   inkscape:zoom="1.0262238"
   inkscape:cx="514.50766"
   inkscape:cy="490.63373"
   inkscape:window-width="1620"
   inkscape:window-height="970"
   inkscape:window-x="164"
   inkscape:window-y="39"
   inkscape:window-maximized="0"
   inkscape:current-layer="g1705"
   units="mm"
   fit-margin-top="10"
   lock-margins="true"
   fit-margin-left="10"
   fit-margin-right="10"
   fit-margin-bottom="10"
   width="243.80646mm"
   height="279.39847mm"
   inkscape:document-units="mm"
   inkscape:showpageshadow="2"
   inkscape:deskcolor="#d1d1d1" />
<style
   type="text/css"
   id="style2">
	.st0{fill:#C1272D;}
	.st1{fill:#CF2A32;}
	.st2{fill:#E02D39;}
	.st3{fill:#3ED8D2;}
	.st4{fill:#30D5CD;}
	.st5{fill:#1FD2C6;}
</style>
<g
   id="g54"
   transform="matrix(5.013865,0,0,5.013865,3293.8044,-1698.4993)"
   inkscape:label="sticks"
   style="display:inline">
	
	
	<g
   id="g1705"
   inkscape:label="pressed"
   transform="translate(-81.505587,37.395201)"><g
     id="g52"
     inkscape:label="R3"
     transform="matrix(0.85728838,0,0,0.85728838,-107.57259,72.054345)"
     style="stroke-width:0.99976618;stroke-dasharray:none">
		<g
   id="g42"
   style="stroke-width:0.99976618;stroke-dasharray:none">
			<path
   class="st3"
   d="m -577,586.5 c -25.1,0 -45.5,-20.4 -45.5,-45.5 0,-25.1 20.4,-45.5 45.5,-45.5 25.1,0 45.5,20.4 45.5,45.5 0,25.1 -20.4,45.5 -45.5,45.5 z"
   id="path36"
   style="fill:#abeded;fill-opacity:1;stroke-width:0.99976618;stroke-dasharray:none" />
			<g
   id="g40"
   style="stroke-width:0.99976618;stroke-dasharray:none">
				<path
   class="st4"
   d="m -577,497 c 24.3,0 44,19.7 44,44 0,24.3 -19.7,44 -44,44 -24.3,0 -44,-19.7 -44,-44 0,-24.3 19.7,-44 44,-44 m 0,-3 c -26,0 -47,21 -47,47 0,26 21,47 47,47 26,0 47,-21 47,-47 0,-26 -21,-47 -47,-47 z"
   id="path38"
   style="fill:#1fcbd2;fill-opacity:1;stroke-width:0.99976618;stroke-dasharray:none" />
			</g>
		</g>
		<circle
   class="st5"
   cx="-577"
   cy="541"
   r="27.299999"
   id="circle44"
   style="fill:#1fcbd2;fill-opacity:1;stroke-width:0.99976618;stroke-dasharray:none" />
		
	</g><g
     id="g34"
     inkscape:label="L3"
     transform="matrix(0.85728838,0,0,0.85728838,-113.3965,72.054345)">
		<g
   id="g24">
			<path
   class="st3"
   d="m -673,586.5 c -25.1,0 -45.5,-20.4 -45.5,-45.5 0,-25.1 20.4,-45.5 45.5,-45.5 25.1,0 45.5,20.4 45.5,45.5 0,25.1 -20.4,45.5 -45.5,45.5 z"
   id="path18"
   style="fill:#abeded;fill-opacity:1" />
			<g
   id="g22">
				<path
   class="st4"
   d="m -673,497 c 24.3,0 44,19.7 44,44 0,24.3 -19.7,44 -44,44 -24.3,0 -44,-19.7 -44,-44 0,-24.3 19.7,-44 44,-44 m 0,-3 c -26,0 -47,21 -47,47 0,26 21,47 47,47 26,0 47,-21 47,-47 0,-26 -21,-47 -47,-47 z"
   id="path20"
   style="fill:#1fcbd2;fill-opacity:1" />
			</g>
		</g>
		<circle
   class="st5"
   cx="-673"
   cy="541"
   r="27.299999"
   id="circle26"
   style="fill:#1fcbd2;fill-opacity:1" />
		
	</g></g>
<g
   id="g1685"
   inkscape:label="normal"
   transform="translate(20.411723,-60.799743)"><g
     id="g16"
     inkscape:label="R3"
     transform="matrix(0.85728837,0,0,0.85728837,-44.890533,82.124694)">
		<g
   id="g14">
			<g
   id="g10">
				<path
   class="st0"
   d="m -769,586.5 c -25.1,0 -45.5,-20.4 -45.5,-45.5 0,-25.1 20.4,-45.5 45.5,-45.5 25.1,0 45.5,20.4 45.5,45.5 0,25.1 -20.4,45.5 -45.5,45.5 z"
   id="path4"
   style="fill:#ffffff;fill-opacity:1" />
				<g
   id="g8">
					<path
   class="st1"
   d="m -769,497 c 24.3,0 44,19.7 44,44 0,24.3 -19.7,44 -44,44 -24.3,0 -44,-19.7 -44,-44 0,-24.3 19.7,-44 44,-44 m 0,-3 c -26,0 -47,21 -47,47 0,26 21,47 47,47 26,0 47,-21 47,-47 0,-26 -21,-47 -47,-47 z"
   id="path6"
   style="fill:#cbcbcb;fill-opacity:1;stroke-width:0.99976619;stroke-dasharray:none" />
				</g>
			</g>
			<circle
   class="st2"
   cx="-769"
   cy="541"
   r="27.299999"
   id="circle12"
   style="fill:#cccccc;fill-opacity:1" />
		</g>
	</g><g
     id="g1669"
     inkscape:label="L3"
     transform="matrix(0.85728837,0,0,0.85728837,-133.01414,82.124694)">
		<g
   id="g1667">
			<g
   id="g1663"
   style="stroke-width:0.99976619;stroke-dasharray:none">
				<path
   class="st0"
   d="m -769,586.5 c -25.1,0 -45.5,-20.4 -45.5,-45.5 0,-25.1 20.4,-45.5 45.5,-45.5 25.1,0 45.5,20.4 45.5,45.5 0,25.1 -20.4,45.5 -45.5,45.5 z"
   id="path1657"
   style="fill:#ffffff;fill-opacity:1;stroke-width:0.99976619;stroke-dasharray:none" />
				<g
   id="g1661"
   style="stroke-width:0.99976619;stroke-dasharray:none">
					<path
   class="st1"
   d="m -769,497 c 24.3,0 44,19.7 44,44 0,24.3 -19.7,44 -44,44 -24.3,0 -44,-19.7 -44,-44 0,-24.3 19.7,-44 44,-44 m 0,-3 c -26,0 -47,21 -47,47 0,26 21,47 47,47 26,0 47,-21 47,-47 0,-26 -21,-47 -47,-47 z"
   id="path1659"
   style="fill:#cbcbcb;fill-opacity:1;stroke-width:0.99976619;stroke-dasharray:none" />
				</g>
			</g>
			<circle
   class="st2"
   cx="-769"
   cy="541"
   r="27.299999"
   id="circle1665"
   style="fill:#cccccc;fill-opacity:1" />
		</g>
	</g></g></g>
</svg>
